<svg width="48" height="48" viewBox="0 0 48 48" fill="none" xmlns="http://www.w3.org/2000/svg">
<path d="M19.3332 15C19.3332 11.6863 21.4224 9 23.9998 9H33.3332C35.9106 9 37.9998 11.6863 37.9998 15V18C37.9998 21.3138 35.9106 24 33.3332 24H23.9998C21.4224 24 19.3332 21.3138 19.3332 18V15ZM23.9998 13.5C23.3556 13.5 22.8332 14.1716 22.8332 15V18C22.8332 18.8283 23.3556 19.5 23.9998 19.5H33.3332C33.9774 19.5 34.4998 18.8283 34.4998 18V15C34.4998 14.1716 33.9774 13.5 33.3332 13.5H23.9998ZM5.33317 0C2.75584 0 0.666504 2.68629 0.666504 6V42C0.666504 45.3138 2.75584 48 5.33317 48H42.6665C45.2439 48 47.3332 45.3138 47.3332 42V6C47.3332 2.68629 45.2439 0 42.6665 0H5.33317ZM42.6665 4.5C43.3107 4.5 43.8332 5.17158 43.8332 6V42C43.8332 42.8283 43.3107 43.5 42.6665 43.5H13.4998V4.5H42.6665ZM5.33317 4.5H9.99984V43.5H5.33317C4.68884 43.5 4.1665 42.8283 4.1665 42V6C4.1665 5.17158 4.68884 4.5 5.33317 4.5Z" fill="#06222E"/>
</svg>
