<svg width="54" height="54" viewBox="0 0 54 54" fill="none" xmlns="http://www.w3.org/2000/svg">
<path d="M27 54C41.9117 54 54 41.9117 54 27C54 12.0883 41.9117 0 27 0C12.0883 0 0 12.0883 0 27C0 41.9117 12.0883 54 27 54Z" fill="#E4405F"/>
<path d="M27.0001 13.5C23.3351 13.5 22.8763 13.5158 21.4366 13.5791C19.997 13.6477 19.0214 13.8744 18.1618 14.2066C17.2759 14.5494 16.5218 15.0135 15.7677 15.7623C15.0136 16.5111 14.5548 17.2652 14.212 18.1564C13.8798 19.016 13.653 19.9969 13.5845 21.4312C13.5159 22.8709 13.5054 23.3297 13.5054 26.9947C13.5054 30.6598 13.5212 31.1186 13.5845 32.5582C13.653 33.9926 13.8798 34.9734 14.212 35.833C14.5548 36.7189 15.0188 37.473 15.7677 38.2271C16.5165 38.976 17.2706 39.44 18.1618 39.7828C19.0214 40.115 20.0022 40.3418 21.4366 40.4104C22.8763 40.4789 23.3351 40.4895 27.0001 40.4895C30.6651 40.4895 31.1239 40.4736 32.5636 40.4104C33.9979 40.3418 34.9788 40.115 35.8384 39.7828C36.7243 39.44 37.4784 38.976 38.2325 38.2271C38.9813 37.4783 39.4454 36.7242 39.7882 35.833C40.1204 34.9734 40.3472 33.9926 40.4157 32.5582C40.4843 31.1186 40.4948 30.6598 40.4948 26.9947C40.4948 23.3297 40.479 22.8709 40.4157 21.4312C40.3472 19.9969 40.1204 19.016 39.7882 18.1564C39.4454 17.2705 38.9813 16.5164 38.2325 15.7623C37.4837 15.0135 36.7296 14.5494 35.8384 14.2066C34.9788 13.8744 33.9979 13.6477 32.5636 13.5791C31.1239 13.5158 30.6651 13.5 27.0001 13.5ZM27.0001 15.9311C30.6019 15.9311 31.0343 15.9469 32.4581 16.0102C33.7765 16.0734 34.4884 16.2896 34.963 16.4795C35.5958 16.7221 36.044 17.0174 36.5187 17.4867C36.988 17.9613 37.2833 18.4096 37.5259 19.0424C37.7104 19.517 37.9319 20.2289 37.9899 21.5473C38.0532 22.9711 38.069 23.3982 38.069 27.0053C38.069 30.6123 38.0532 31.0395 37.9847 32.4633C37.9161 33.7816 37.6946 34.4936 37.5101 34.9682C37.2569 35.601 36.9722 36.0492 36.4976 36.5238C36.0282 36.9932 35.5694 37.2885 34.9472 37.5311C34.4726 37.7156 33.7501 37.9371 32.4317 37.9951C30.9974 38.0584 30.5755 38.0742 26.9632 38.0742C23.3509 38.0742 22.929 38.0584 21.4946 37.9898C20.1763 37.9213 19.4538 37.6998 18.9792 37.5152C18.3411 37.2621 17.8981 36.9773 17.4288 36.5027C16.9542 36.0334 16.6536 35.5746 16.4163 34.9523C16.2317 34.4777 16.0103 33.7553 15.9417 32.4369C15.889 31.0184 15.8731 30.5807 15.8731 26.9895C15.8731 23.393 15.889 22.9553 15.9417 21.5209C16.0103 20.2025 16.2265 19.4801 16.4163 19.0055C16.6536 18.3621 16.9542 17.9244 17.4288 17.4498C17.8981 16.9805 18.3411 16.6746 18.9792 16.4373C19.4538 16.2527 20.1604 16.0313 21.4788 15.9627C22.9132 15.91 23.3351 15.8941 26.9474 15.8941L27.0001 15.9311ZM27.0001 20.0654C23.1716 20.0654 20.0655 23.1715 20.0655 27C20.0655 30.8285 23.1716 33.9346 27.0001 33.9346C30.8286 33.9346 33.9347 30.8285 33.9347 27C33.9347 23.1715 30.8286 20.0654 27.0001 20.0654ZM27.0001 31.4982C24.5163 31.4982 22.5019 29.4838 22.5019 27C22.5019 24.5162 24.5163 22.5018 27.0001 22.5018C29.4839 22.5018 31.4983 24.5162 31.4983 27C31.4983 29.4838 29.4839 31.4982 27.0001 31.4982ZM35.8278 19.7965C35.8278 20.693 35.1001 21.4154 34.2089 21.4154C33.3124 21.4154 32.5899 20.6877 32.5899 19.7965C32.5899 18.9053 33.3177 18.1775 34.2089 18.1775C35.1001 18.1723 35.8278 18.9 35.8278 19.7965Z" fill="white"/>
</svg>
