<svg width="66" height="61" viewBox="0 0 66 61" fill="none" xmlns="http://www.w3.org/2000/svg">
<path d="M42.2649 19.2368C42.048 18.9566 41.8131 18.6894 41.5617 18.4371C40.6251 17.4977 39.4818 16.79 38.223 16.3705L34.0896 15.0282C33.771 14.9159 33.495 14.7076 33.3 14.432C33.1047 14.1565 33 13.8272 33 13.4897C33 13.1521 33.1047 12.8229 33.3 12.5473C33.495 12.2717 33.771 12.0635 34.0896 11.9512L38.223 10.6088C39.4641 10.1806 40.5897 9.47115 41.511 8.53611C42.4071 7.62672 43.0869 6.52785 43.5 5.32116L43.5342 5.21889L44.8776 1.08868C44.9901 0.770346 45.1986 0.494685 45.4743 0.299698C45.75 0.10471 46.0794 0 46.4172 0C46.7553 0 47.0847 0.10471 47.3604 0.299698C47.6361 0.494685 47.8446 0.770346 47.9571 1.08868L49.3005 5.21889C49.7181 6.47457 50.4231 7.61559 51.3594 8.55123C52.296 9.4869 53.4378 10.1915 54.6945 10.6088L58.8279 11.9512L58.9104 11.9718C59.229 12.0841 59.505 12.2924 59.7 12.568C59.8953 12.8435 60 13.1728 60 13.5103C60 13.8479 59.8953 14.1771 59.7 14.4527C59.505 14.7283 59.229 14.9365 58.9104 15.0488L54.777 16.3912C53.5206 16.8085 52.3785 17.5131 51.4422 18.4488C50.5059 19.3844 49.8009 20.5254 49.383 21.7811L48.0396 25.9113C48.0276 25.9457 48.0144 25.9795 48 26.0128C47.8815 26.2882 47.6892 26.5264 47.4432 26.7003C47.1672 26.8953 46.8378 27 46.5 27C46.1622 27 45.8328 26.8953 45.5568 26.7003C45.2811 26.5053 45.0726 26.2297 44.9604 25.9113L43.617 21.7811C43.3134 20.8599 42.8553 19.9999 42.2649 19.2368ZM65.3487 30.6396L63.0525 29.8938C62.3544 29.6619 61.7199 29.2705 61.1997 28.7507C60.6795 28.2309 60.2877 27.597 60.0558 26.8994L59.3094 24.6048C59.247 24.428 59.1312 24.2748 58.9779 24.1665C58.8249 24.0582 58.6419 24 58.4541 24C58.2663 24 58.0833 24.0582 57.93 24.1665C57.777 24.2748 57.6612 24.428 57.5988 24.6048L56.8524 26.8994C56.625 27.5921 56.2401 28.2228 55.7283 28.7423C55.2165 29.2618 54.5913 29.6559 53.9016 29.8938L51.6054 30.6396C51.4284 30.702 51.2751 30.8175 51.1665 30.9708C51.0582 31.1238 51 31.3068 51 31.4943C51 31.6818 51.0582 31.8648 51.1665 32.0178C51.2751 32.1708 51.4284 32.2866 51.6054 32.349L53.9016 33.0948C54.6009 33.3279 55.236 33.7209 55.7565 34.2429C56.2767 34.7646 56.6679 35.4009 56.8983 36.1005L57.6447 38.3952C57.7071 38.5719 57.8229 38.7252 57.9762 38.8335C58.1292 38.9418 58.3122 39 58.5 39C58.6878 39 58.8708 38.9418 59.0238 38.8335C59.1771 38.7252 59.2929 38.5719 59.3553 38.3952L60.1017 36.1005C60.3339 35.403 60.7254 34.7691 61.2456 34.2492C61.7658 33.7296 62.4003 33.3381 63.0984 33.1062L65.3946 32.3604C65.5716 32.298 65.7249 32.1825 65.8335 32.0292C65.9418 31.8762 66 31.6932 66 31.5057C66 31.3182 65.9418 31.1352 65.8335 30.9822C65.7249 30.8292 65.5716 30.7134 65.3946 30.651L65.3487 30.6396ZM30.2148 12H6.75C3.02208 12 0 15.0221 0 18.75V53.2638C0 56.9916 3.02208 60.0138 6.75 60.0138H53.2362C56.964 60.0138 59.9862 56.9916 59.9862 53.2638V41.7993C59.4846 42.0282 58.9371 42.1485 58.38 42.1485C57.573 42.1485 56.7864 41.8962 56.13 41.427C55.8945 41.2593 55.6788 41.0679 55.4862 40.8567V53.2638C55.4862 54.5064 54.4788 55.5138 53.2362 55.5138L44.982 55.512L44.9841 47.25L44.9667 46.8195C44.7477 44.1213 42.4887 42 39.7341 42H20.25L19.8194 42.0174C17.1213 42.2364 15 44.4954 15 47.25L14.997 55.512L6.75 55.5138C5.50737 55.5138 4.5 54.5064 4.5 53.2638V18.75C4.5 17.5074 5.50737 16.5 6.75 16.5H31.1175C31.0176 16.3647 30.9249 16.2235 30.84 16.0771C30.2958 15.2928 30.003 14.3617 30 13.4071C30.0012 12.9273 30.0744 12.4532 30.2148 12ZM20.25 46.5H39.7341L39.906 46.5198C40.2375 46.5975 40.4841 46.8951 40.4841 47.25L40.482 55.512H19.497L19.5 47.25L19.5198 47.0781C19.5975 46.7466 19.895 46.5 20.25 46.5ZM39 30.0015C39 25.0308 34.9707 21.0014 30 21.0014C25.0293 21.0014 21 25.0308 21 30.0015C21 34.9719 25.0293 39.0015 30 39.0015C34.9707 39.0015 39 34.9719 39 30.0015ZM25.5 30.0015C25.5 27.5161 27.5148 25.5014 30 25.5014C32.4852 25.5014 34.5 27.5161 34.5 30.0015C34.5 32.4867 32.4852 34.5015 30 34.5015C27.5148 34.5015 25.5 32.4867 25.5 30.0015Z" fill="#06222E"/>
</svg>
