<svg width="60" height="60" viewBox="0 0 60 60" fill="none" xmlns="http://www.w3.org/2000/svg">
<path d="M18.7633 20.9996C21.6628 20.9996 24.0132 23.3501 24.0132 26.2497V54.75C24.0132 57.6495 21.6628 60 18.7633 60H5.25C2.3505 60 0 57.6495 0 54.75V26.2497C0 23.3501 2.3505 20.9996 5.25 20.9996H18.7633ZM18.7633 25.4997H5.25C4.83579 25.4997 4.5 25.8354 4.5 26.2497V54.75C4.5 55.1643 4.83579 55.5 5.25 55.5H18.7633C19.1775 55.5 19.5133 55.1643 19.5133 54.75V26.2497C19.5133 25.8354 19.1775 25.4997 18.7633 25.4997ZM12.7481 48C13.9908 48 14.9981 49.0074 14.9981 50.25C14.9981 51.3891 14.1517 52.3305 13.0534 52.4796L12.7481 52.5H11.2481C10.0055 52.5 8.99811 51.4926 8.99811 50.25C8.99811 49.1109 9.84459 48.1695 10.9428 48.0204L11.2481 48H12.7481ZM53.2482 0C56.8206 0 59.745 2.77548 59.9826 6.28785L59.9982 6.75V33.75C59.9982 37.3227 57.2226 40.2468 53.7102 40.4844L53.2482 40.5H42.0102V46.5H45.7482C46.9908 46.5 47.9982 47.5074 47.9982 48.75C47.9982 49.8891 47.1516 50.8305 46.0533 50.9796L45.7482 51H26.9982V46.5H37.5102V40.5H26.9982V36H53.2482C54.3873 36 55.3287 35.1534 55.4775 34.0554L55.4982 33.75V6.75C55.4982 5.50737 54.4908 4.5 53.2482 4.5H12.7481C11.609 4.5 10.6676 5.34645 10.5187 6.44469L10.4981 6.75V18H5.99811V6.75C5.99811 3.17742 8.77362 0.25308 12.286 0.0155697L12.7481 0H53.2482Z" fill="#06222E"/>
</svg>
