<svg width="57" height="60" viewBox="0 0 57 60" fill="none" xmlns="http://www.w3.org/2000/svg">
<path d="M41.2467 0L54.9081 0.00155997L55.209 0.0433202L55.5054 0.12615L55.6863 0.2028C55.9239 0.30738 56.1465 0.45945 56.3424 0.65508L56.4645 0.7872L56.595 0.95634L56.7576 1.2267L56.8737 1.49766L56.931 1.6899L56.9718 1.8819L57 2.1645L57.0012 15.7617C57.0012 17.0043 55.9941 18.0117 54.7512 18.0117C53.6124 18.0117 52.671 17.1652 52.5219 16.067L52.5012 15.7617L52.5 7.677L33.1821 26.9991C32.3832 27.798 31.1331 27.8706 30.2523 27.2172L30 26.9994L20.9091 18.2677L3.84099 35.3358C2.96232 36.2145 1.53768 36.2145 0.659011 35.3358C-0.139799 34.5369 -0.212399 33.2871 0.441151 32.4063L0.659011 32.1537L19.3181 13.4948C20.1168 12.696 21.3669 12.6234 22.2477 13.2769L22.5 13.4948L31.5909 22.2263L49.314 4.5H41.2467C40.1076 4.5 39.1662 3.65355 39.0174 2.55531L38.9967 2.25C38.9967 1.1109 39.8433 0.16953 40.9416 0.02055L41.2467 0ZM2.25 45C3.49263 45 4.5 46.0074 4.5 47.25V57.75C4.5 58.9926 3.49263 60 2.25 60C1.00737 60 1.01145e-06 58.9926 1.01145e-06 57.75V47.25C1.01145e-06 46.0074 1.00737 45 2.25 45ZM19.5 35.25C19.5 34.0074 18.4926 33 17.25 33C16.0074 33 15 34.0074 15 35.25V57.75C15 58.9926 16.0074 60 17.25 60C18.4926 60 19.5 58.9926 19.5 57.75V35.25ZM32.25 39C33.4926 39 34.5 40.0074 34.5 41.25V57.75C34.5 58.9926 33.4926 60 32.25 60C31.0074 60 30 58.9926 30 57.75V41.25C30 40.0074 31.0074 39 32.25 39ZM49.5 26.25C49.5 25.0074 48.4926 24 47.25 24C46.0074 24 45 25.0074 45 26.25V57.75C45 58.9926 46.0074 60 47.25 60C48.4926 60 49.5 58.9926 49.5 57.75V26.25Z" fill="#06222E"/>
</svg>
